<mxfile host="app.diagrams.net" modified="2022-03-21T03:28:54.849Z" agent="5.0 (Windows NT 10.0; Win64; x64) AppleWebKit/537.36 (KHTML, like Gecko) Chrome/97.0.4692.99 Safari/537.36" etag="5BI6oVOTC9Jh0TTArl_y" version="17.1.2" type="github">
  <diagram name="Page-1" id="bd83a815-5ea8-2e97-e5ec-87c9f400f2fa">
    <mxGraphModel dx="948" dy="529" grid="1" gridSize="10" guides="1" tooltips="1" connect="1" arrows="1" fold="1" page="1" pageScale="1.5" pageWidth="1169" pageHeight="826" background="none" math="0" shadow="0">
      <root>
        <mxCell id="0" style=";html=1;" />
        <mxCell id="1" style=";html=1;" parent="0" />
        <mxCell id="F4GWBupZAmnBH1ptHHpH-3" value="" style="whiteSpace=wrap;html=1;rounded=0;shadow=0;strokeWidth=1;fontSize=14" parent="1" vertex="1">
          <mxGeometry x="640" y="190" width="60" height="50" as="geometry" />
        </mxCell>
        <mxCell id="F4GWBupZAmnBH1ptHHpH-4" value="&lt;span style=&quot;font-size: 12px&quot;&gt;缓存过期&lt;/span&gt;" style="whiteSpace=wrap;html=1;rounded=0;shadow=0;strokeWidth=1;fontSize=14" parent="1" vertex="1">
          <mxGeometry x="700" y="190" width="110.03" height="50" as="geometry" />
        </mxCell>
        <mxCell id="F4GWBupZAmnBH1ptHHpH-5" value="" style="whiteSpace=wrap;html=1;rounded=0;shadow=0;strokeWidth=1;fontSize=14" parent="1" vertex="1">
          <mxGeometry x="640" y="140" width="60" height="50" as="geometry" />
        </mxCell>
        <mxCell id="F4GWBupZAmnBH1ptHHpH-6" value="&lt;span style=&quot;font-size: 12px&quot;&gt;读缓存&lt;/span&gt;" style="whiteSpace=wrap;html=1;rounded=0;shadow=0;strokeWidth=1;fontSize=14" parent="1" vertex="1">
          <mxGeometry x="700" y="140" width="110.03" height="50" as="geometry" />
        </mxCell>
        <mxCell id="F4GWBupZAmnBH1ptHHpH-7" value="" style="whiteSpace=wrap;html=1;rounded=0;shadow=0;strokeWidth=1;fontSize=14" parent="1" vertex="1">
          <mxGeometry x="640" y="90" width="60" height="50" as="geometry" />
        </mxCell>
        <mxCell id="F4GWBupZAmnBH1ptHHpH-8" value="&lt;span style=&quot;font-size: 12px&quot;&gt;写缓存&lt;/span&gt;" style="whiteSpace=wrap;html=1;rounded=0;shadow=0;strokeWidth=1;fontSize=14" parent="1" vertex="1">
          <mxGeometry x="700" y="90" width="110.03" height="50" as="geometry" />
        </mxCell>
        <mxCell id="F4GWBupZAmnBH1ptHHpH-10" value="W1" style="ellipse;whiteSpace=wrap;html=1;aspect=fixed;fillColor=#dae8fc;strokeColor=#6c8ebf;fontStyle=1;labelPosition=center;verticalLabelPosition=top;align=center;verticalAlign=bottom;fontColor=#7EA6E0;" parent="1" vertex="1">
          <mxGeometry x="30" y="70" width="20" height="20" as="geometry" />
        </mxCell>
        <mxCell id="F4GWBupZAmnBH1ptHHpH-11" value="R2" style="ellipse;whiteSpace=wrap;html=1;aspect=fixed;fillColor=#d5e8d4;strokeColor=#82b366;labelPosition=left;verticalLabelPosition=middle;align=right;verticalAlign=middle;fontColor=#97D077;" parent="1" vertex="1">
          <mxGeometry x="350.03" y="230" width="20" height="20" as="geometry" />
        </mxCell>
        <mxCell id="ReeqnjHQ_uF5xdGVmOLj-5" value="" style="edgeStyle=orthogonalEdgeStyle;rounded=0;orthogonalLoop=1;jettySize=auto;html=1;" edge="1" parent="1" source="F4GWBupZAmnBH1ptHHpH-14">
          <mxGeometry relative="1" as="geometry">
            <mxPoint x="200" y="80" as="targetPoint" />
          </mxGeometry>
        </mxCell>
        <mxCell id="ReeqnjHQ_uF5xdGVmOLj-6" value="失效前5s重置" style="edgeLabel;html=1;align=left;verticalAlign=middle;resizable=0;points=[];labelPosition=right;verticalLabelPosition=middle;" vertex="1" connectable="0" parent="ReeqnjHQ_uF5xdGVmOLj-5">
          <mxGeometry x="-0.2778" y="-1" relative="1" as="geometry">
            <mxPoint x="-1" y="-5" as="offset" />
          </mxGeometry>
        </mxCell>
        <mxCell id="F4GWBupZAmnBH1ptHHpH-14" value="R1" style="ellipse;whiteSpace=wrap;html=1;aspect=fixed;fontSize=10;labelPosition=left;verticalLabelPosition=middle;align=right;verticalAlign=middle;fillColor=#ffe6cc;strokeColor=#d79b00;fontColor=#FFB570;" parent="1" vertex="1">
          <mxGeometry x="189.99999999999994" y="150" width="20" height="20" as="geometry" />
        </mxCell>
        <mxCell id="F4GWBupZAmnBH1ptHHpH-17" value="expire" style="shape=sumEllipse;perimeter=ellipsePerimeter;whiteSpace=wrap;html=1;backgroundOutline=1;labelPosition=center;verticalLabelPosition=top;align=center;verticalAlign=bottom;fillColor=#dae8fc;strokeColor=#6c8ebf;fontColor=#7EA6E0;" parent="1" vertex="1">
          <mxGeometry x="230.00000000000003" y="70" width="20" height="20" as="geometry" />
        </mxCell>
        <mxCell id="F4GWBupZAmnBH1ptHHpH-18" value="" style="endArrow=none;dashed=1;html=1;fillColor=#dae8fc;strokeColor=#6c8ebf;labelPosition=center;verticalLabelPosition=top;align=center;verticalAlign=bottom;fontSize=6;startArrow=none;exitX=1;exitY=0.5;exitDx=0;exitDy=0;" parent="1" source="F4GWBupZAmnBH1ptHHpH-10" target="F4GWBupZAmnBH1ptHHpH-17" edge="1">
          <mxGeometry width="50" height="50" relative="1" as="geometry">
            <mxPoint x="109" y="80" as="sourcePoint" />
            <mxPoint x="640" y="80" as="targetPoint" />
            <Array as="points" />
          </mxGeometry>
        </mxCell>
        <mxCell id="ReeqnjHQ_uF5xdGVmOLj-1" value="10s" style="edgeLabel;html=1;align=center;verticalAlign=middle;resizable=0;points=[];fontColor=#7EA6E0;" vertex="1" connectable="0" parent="F4GWBupZAmnBH1ptHHpH-18">
          <mxGeometry x="0.1224" relative="1" as="geometry">
            <mxPoint x="-11" as="offset" />
          </mxGeometry>
        </mxCell>
        <mxCell id="F4GWBupZAmnBH1ptHHpH-20" value="10s" style="edgeStyle=orthogonalEdgeStyle;rounded=1;orthogonalLoop=1;jettySize=auto;html=1;dashed=1;endArrow=none;endFill=0;fillColor=#d5e8d4;strokeColor=#82b366;startArrow=none;exitX=1;exitY=0.5;exitDx=0;exitDy=0;fontColor=#97D077;" parent="1" source="F4GWBupZAmnBH1ptHHpH-11" target="F4GWBupZAmnBH1ptHHpH-24" edge="1">
          <mxGeometry relative="1" as="geometry">
            <mxPoint x="430" y="220" as="targetPoint" />
            <mxPoint x="374.03" y="230" as="sourcePoint" />
            <Array as="points">
              <mxPoint x="410.03" y="240" />
              <mxPoint x="410.03" y="240" />
            </Array>
          </mxGeometry>
        </mxCell>
        <mxCell id="F4GWBupZAmnBH1ptHHpH-24" value="expire" style="shape=sumEllipse;perimeter=ellipsePerimeter;whiteSpace=wrap;html=1;backgroundOutline=1;labelPosition=center;verticalLabelPosition=top;align=center;verticalAlign=bottom;fillColor=#d5e8d4;strokeColor=#82b366;fontColor=#97D077;" parent="1" vertex="1">
          <mxGeometry x="550" y="230" width="20" height="20" as="geometry" />
        </mxCell>
        <mxCell id="F4GWBupZAmnBH1ptHHpH-28" value="W1" style="ellipse;whiteSpace=wrap;html=1;aspect=fixed;fillColor=#dae8fc;strokeColor=#6c8ebf;fontStyle=1;labelPosition=center;verticalLabelPosition=top;align=center;verticalAlign=bottom;fontColor=#7EA6E0;" parent="1" vertex="1">
          <mxGeometry x="660" y="110" width="20" height="20" as="geometry" />
        </mxCell>
        <mxCell id="F4GWBupZAmnBH1ptHHpH-29" value="R1" style="ellipse;whiteSpace=wrap;html=1;aspect=fixed;fontSize=10;labelPosition=center;verticalLabelPosition=top;align=center;verticalAlign=bottom;fillColor=#ffe6cc;strokeColor=#d79b00;fontColor=#FFB570;" parent="1" vertex="1">
          <mxGeometry x="660" y="160" width="20" height="20" as="geometry" />
        </mxCell>
        <mxCell id="F4GWBupZAmnBH1ptHHpH-30" value="expire" style="shape=sumEllipse;perimeter=ellipsePerimeter;whiteSpace=wrap;html=1;backgroundOutline=1;labelPosition=center;verticalLabelPosition=top;align=center;verticalAlign=bottom;fillColor=#d5e8d4;strokeColor=#82b366;fontColor=#97D077;" parent="1" vertex="1">
          <mxGeometry x="660" y="210" width="20" height="20" as="geometry" />
        </mxCell>
        <mxCell id="ReeqnjHQ_uF5xdGVmOLj-2" value="expire" style="shape=sumEllipse;perimeter=ellipsePerimeter;whiteSpace=wrap;html=1;backgroundOutline=1;labelPosition=center;verticalLabelPosition=top;align=center;verticalAlign=bottom;fillColor=#ffe6cc;strokeColor=#d79b00;fontColor=#FFB570;" vertex="1" parent="1">
          <mxGeometry x="390" y="150" width="20" height="20" as="geometry" />
        </mxCell>
        <mxCell id="ReeqnjHQ_uF5xdGVmOLj-3" value="10s" style="edgeStyle=orthogonalEdgeStyle;rounded=1;orthogonalLoop=1;jettySize=auto;html=1;dashed=1;endArrow=none;endFill=0;fontSize=12;fontColor=#FFB570;fillColor=#ffe6cc;strokeColor=#d79b00;startArrow=none;exitX=1;exitY=0.5;exitDx=0;exitDy=0;" edge="1" parent="1" source="F4GWBupZAmnBH1ptHHpH-14" target="ReeqnjHQ_uF5xdGVmOLj-2">
          <mxGeometry relative="1" as="geometry">
            <mxPoint x="269" y="160" as="sourcePoint" />
            <mxPoint x="340" y="110" as="targetPoint" />
            <Array as="points" />
          </mxGeometry>
        </mxCell>
        <mxCell id="ReeqnjHQ_uF5xdGVmOLj-14" value="" style="edgeStyle=orthogonalEdgeStyle;rounded=0;orthogonalLoop=1;jettySize=auto;html=1;exitX=0.5;exitY=0;exitDx=0;exitDy=0;" edge="1" parent="1" source="F4GWBupZAmnBH1ptHHpH-11">
          <mxGeometry relative="1" as="geometry">
            <mxPoint x="370.03" y="230" as="sourcePoint" />
            <mxPoint x="360" y="160" as="targetPoint" />
          </mxGeometry>
        </mxCell>
        <mxCell id="ReeqnjHQ_uF5xdGVmOLj-15" value="失效前5s重置" style="edgeLabel;html=1;align=left;verticalAlign=middle;resizable=0;points=[];labelPosition=right;verticalLabelPosition=middle;" vertex="1" connectable="0" parent="ReeqnjHQ_uF5xdGVmOLj-14">
          <mxGeometry x="-0.2778" y="-1" relative="1" as="geometry">
            <mxPoint x="-1" y="-5" as="offset" />
          </mxGeometry>
        </mxCell>
      </root>
    </mxGraphModel>
  </diagram>
</mxfile>
